<svg width="401.98" height="559.472" xmlns="http://www.w3.org/2000/svg" xmlns:svg="http://www.w3.org/2000/svg" xmlns:xlink="http://www.w3.org/1999/xlink">
 <metadata id="metadata935">image/svg+xml</metadata>
 <defs>
  <clipPath clipPathUnits="userSpaceOnUse" id="clipPath3114">
   <use x="0" y="0" xlink:href="#g3110" id="use3116" width="100%" height="100%"/>
  </clipPath>
  <clipPath clipPathUnits="userSpaceOnUse" id="clipPath3123">
   <use x="0" y="0" xlink:href="#g3119" id="use3125" width="100%" height="100%"/>
  </clipPath>
 </defs>
 <g display="inline">
  <title>Layer 1</title>
  <path d="m97.38899,162.55782c-42.2079,-11.8692 -10.8227,-65.5648 23.0713,-43.4791l-23.0713,43.4791z" id="path880" stroke-linecap="round" stroke-width="2.1" stroke="#000000" fill-rule="evenodd" fill="#6ad7e5" clip-rule="evenodd"/>
  <path d="m284.91759,115.04952c33.4089,-23.4661 63.5992,29.4777 24.7716,42.7987l-24.7716,-42.7987z" id="path882" stroke-linecap="round" stroke-width="2.1" stroke="#000000" fill-rule="evenodd" fill="#6ad7e5" clip-rule="evenodd"/>
  <path d="m292.10379,429.60082c8.4861,5.2507 23.9974,21.1274 11.2672,28.826c-12.2318,11.1993 -19.0778,-12.2927 -29.8137,-15.5477c4.6235,-6.279 10.4839,-12.0043 18.5465,-13.2783z" id="path884" stroke-linecap="round" stroke-width="2.1" stroke="#000000" fill-rule="evenodd" fill="#f6d2a2" clip-rule="evenodd"/>
  <path d="m303.37099,458.42612c-1.8872,-3.7527 -2.5207,-8.1326 -5.6714,-11.1573" id="path886" stroke-linecap="round" stroke-width="2.1" stroke="#000000" fill-rule="evenodd" fill="none" clip-rule="evenodd"/>
  <path d="m140.49639,447.54322c-9.9603,1.5414 -15.5666,10.5273 -23.87,15.0906c-7.8246,4.6655 -10.8178,-1.4938 -11.5227,-2.744c-1.2264,-0.5593 -1.1235,0.5208 -3.0163,-1.3853c-7.25341,-11.4478 7.5579,-19.8156 15.2705,-25.5024c10.7422,-2.1714 17.4741,7.1414 23.1385,14.5411z" id="path888" stroke-linecap="round" stroke-width="2.1" stroke="#000000" fill-rule="evenodd" fill="#f6d2a2" clip-rule="evenodd"/>
  <path d="m105.10439,459.88912c0.3794,-4.3631 3.8388,-7.2849 5.4866,-10.9739" id="path890" stroke-linecap="round" stroke-width="2.1" stroke="#000000" fill-rule="evenodd" fill="none" clip-rule="evenodd"/>
  <path d="m99.15018,147.72762c-5.5685,-2.9456 -9.6537,-6.9461 -6.2475,-13.3868c3.1535,-5.9626 9.01181,-5.3151 14.58101,-2.3695l-8.33351,15.7563z" id="path892" stroke-width="0.7" fill-rule="evenodd" clip-rule="evenodd"/>
  <path d="m300.89229,142.12762c5.5685,-2.9456 9.6537,-6.9461 6.2475,-13.3868c-3.1535,-5.9626 -9.0118,-5.3151 -14.581,-2.3695l8.3335,15.7563z" id="path894" stroke-width="0.7" fill-rule="evenodd" clip-rule="evenodd"/>
  <g id="g902" transform="matrix(0.7,0,0,0.7,64.491085,83.560717) ">
   <path d="m193.10129,12.32043c60.365,0 116.953,8.633 146.452,66.629c26.478,65.006 17.062,135.104 21.1,203.806c3.468,58.992 11.157,127.145 -16.21,181.812c-28.79,57.514 -100.73,71.982 -160,69.863c-46.555,-1.666 -102.794,-16.854 -129.069,-59.389c-30.826,-49.9 -16.232,-124.098 -13.993,-179.622c2.652,-65.771 -17.815,-131.742 3.792,-196.101c22.415,-66.763 82.867,-81.851 147.928,-86.998" id="path900" stroke-linecap="round" stroke-width="3" stroke="#000000" fill-rule="evenodd" fill="#6ad7e5" clip-rule="evenodd"/>
  </g>
  <path d="m208.80939,149.47272c7.5866,44.1021 79.6754,32.4415 69.321,-12.0379c-9.2848,-39.886 -71.8424,-28.8456 -69.321,12.0379" id="path904" stroke-linecap="round" stroke-width="2.03567" stroke="#000000" fill-rule="evenodd" fill="#ffffff" clip-rule="evenodd"/>
  <path d="m122.66319,156.60572c9.8329,38.395 71.3048,28.5649 68.9878,-9.9491c-2.7762,-46.1265 -78.3888,-37.226 -68.9878,9.9491" id="path906" stroke-linecap="round" stroke-width="1.97498" stroke="#000000" fill-rule="evenodd" fill="#ffffff" clip-rule="evenodd"/>
  <path d="m217.50689,202.39412c0.0322,5.7337 1.3027,12.1709 0.2184,18.2707c-1.4637,2.7664 -4.3351,3.059 -6.8103,4.1769c-3.423,-0.5369 -6.3014,-2.7846 -7.6741,-5.9864c-0.8785,-6.9622 0.3276,-13.7032 0.5495,-20.6682l13.7165,4.207z" id="path908" stroke-linecap="round" stroke-width="2.1" stroke="#000000" fill-rule="evenodd" fill="#ffffff" clip-rule="evenodd"/>
  <g id="g914" transform="matrix(0.7,0,0,0.7,64.491085,83.560717) ">
   <ellipse cx="107.324" cy="95.404" rx="14.829" ry="16.062" id="ellipse910" fill-rule="evenodd" clip-rule="evenodd"/>
   <ellipse cx="114.069" cy="99.029" rx="3.496" ry="4.082" id="ellipse912" fill-rule="evenodd" fill="#ffffff" clip-rule="evenodd"/>
  </g>
  <g id="g920" transform="matrix(0.7,0,0,0.7,64.491085,83.560717) ">
   <ellipse cx="231.571" cy="91.404" rx="14.582" ry="16.062" id="ellipse916" fill-rule="evenodd" clip-rule="evenodd"/>
   <ellipse cx="238.20399" cy="95.029" rx="3.438" ry="4.082" id="ellipse918" fill-rule="evenodd" fill="#ffffff" clip-rule="evenodd"/>
  </g>
  <path d="m187.84299,201.76972c-4.529,10.976 2.5256,32.9245 14.8141,16.7356c-0.8785,-6.9622 0.3276,-13.7032 0.5495,-20.6682l-15.3636,3.9326z" id="path922" stroke-linecap="round" stroke-width="2.1" stroke="#000000" fill-rule="evenodd" fill="#ffffff" clip-rule="evenodd"/>
  <g id="g928" transform="matrix(0.7,0,0,0.7,64.491085,83.560717) ">
   <path d="m178.431,138.673c-12.059,1.028 -21.916,15.366 -15.646,26.709c8.303,15.024 26.836,-1.329 38.379,0.203c13.285,0.272 24.17,14.047 34.84,2.49c11.867,-12.854 -5.109,-25.373 -18.377,-30.97l-39.196,1.568z" id="path924" stroke-linecap="round" stroke-width="3" stroke="#231f20" fill-rule="evenodd" fill="#f6d2a2" clip-rule="evenodd"/>
   <path d="m176.913,138.045c-0.893,-20.891 38.938,-23.503 43.642,-6.016c4.692,17.446 -41.681,21.498 -43.642,6.016c-1.565,-12.363 0,0 0,0z" id="path926" fill-rule="evenodd" clip-rule="evenodd"/>
  </g>
  <rect id="rect3160" width="0" height="0" x="390.16232" y="269.63712" stroke-miterlimit="4" stroke-width="0" stroke="#050505" fill="#151516"/>
  <path fill="#18fa56" stroke="#050505" stroke-width="0" stroke-linejoin="null" stroke-linecap="null" d="m0,-256.2937l9.85619,0l0,9.85619l-9.85619,0l0,-9.85619zm1.14989,-8.7063l0,7.55642l7.55642,0l0,-7.55642l-7.55642,0z" id="svg_2"/>
  <path fill="#18fa56" stroke="#050505" stroke-width="0" stroke-linejoin="null" stroke-linecap="null" d="m0,-259.72345l5.97345,0l0,5.97345l-5.97345,0l0,-5.97345zm0.6969,-5.27655l0,4.57965l4.57965,0l0,-4.57965l-4.57965,0z" id="svg_3"/>
 </g>
 <g display="inline">
  <title>Injector</title>
  <rect id="rect3131" width="21.59503" height="86.19865" x="39.26664" y="225.112265" rx="9.26891" stroke-miterlimit="4" stroke-width="2.3811" stroke="#050505" fill="#060b0d"/>
  <rect stroke="#050505" ry="4" rx="4" fill="#ffffff" stroke-width="2" stroke-dasharray="null" stroke-linejoin="null" stroke-linecap="null" x="97.883277" y="238.082687" width="119.639733" height="60.257816" id="svg_7"/>
  <rect id="rect3129" width="150.25786" height="16.87679" x="60.86167" y="259.773199" stroke-miterlimit="4" stroke-width="2.3811" stroke="#050505" fill="#060b0d"/>
  <rect id="rect3133" width="80.59366" height="60.46974" x="217.97729" y="237.976722" rx="7.26285" ry="9.95328" stroke-miterlimit="4" stroke-width="2" stroke="#050505" fill="#18fa56"/>
  <rect id="rect3154" width="39.56063" height="19.78032" x="299.13287" y="258.321428" ry="0.54441" stroke-miterlimit="4" stroke-width="0" stroke="#050505" fill="#151516"/>
  <rect id="rect3158" width="54.98566" height="1.63324" x="336.87881" y="267.394974" ry="0.81662" stroke-miterlimit="4" stroke-width="0" stroke="#050505" fill="#151516"/>
  <rect id="rect3127" width="15.0191" height="61.17227" x="212.22964" y="237.62546" rx="6.28709" stroke-miterlimit="4" stroke-width="1.93348" stroke="#050505" fill="#151516"/>
  <rect stroke="#050505" id="svg_1" ry="4" rx="4" fill="#ffffff" stroke-width="2" stroke-dasharray="null" stroke-linejoin="null" stroke-linecap="null" x="89.063415" y="216.83074" width="19.655362" height="102.761715"/>
 </g>
 <g>
  <title>Left hand</title>
  <path d="m132.56578,292.99614c-0.5348,-11.0257 -11.5493,-5.9241 -16.5382,-2.4773c-4.7355,3.2725 -6.1201,0.5523 -6.5359,7.0105c-0.2723,4.2448 -0.7616,8.4896 -0.5208,12.7512c7.161,0.6489 14.9499,-1.0563 20.8208,-5.3214c3.024,-2.1973 8.694,-9.2106 2.7741,-11.963" id="path876" stroke-linecap="round" stroke-width="2.1" stroke="#000000" fill-rule="evenodd" fill="#f6d2a2" clip-rule="evenodd"/>
  <path d="m341.224435,277.07662c-0.5348,-11.0257 -11.5493,-5.9241 -16.5382,-2.4773c-4.7355,3.2725 -6.1201,0.5523 -6.5359,7.0105c-0.2723,4.2448 -0.7616,8.4896 -0.5208,12.7512c7.161,0.6489 14.9499,-1.0563 20.8208,-5.3214c3.0233,-2.1973 8.694,-9.2106 2.7741,-11.963" id="path896" stroke-linecap="round" stroke-width="2.1" stroke="#000000" fill-rule="evenodd" fill="#f6d2a2" clip-rule="evenodd"/>
 </g>
 <g>
  <title>Bubbles</title>
  <g id="g3193" stroke="null">
   <path d="m249.71073,264.20321a7.12438,7.12439 0 0 1 -4.76416,-8.76825a7.12438,7.12439 0 0 1 8.67588,-4.93037a7.12438,7.12439 0 0 1 5.09479,8.58036a7.12438,7.12439 0 0 1 -8.48172,5.25736" id="path3168" stroke-miterlimit="4" stroke-width="0" fill="#f3f4f4" stroke="#050505"/>
  </g>
  <path id="path3185" d="m256.75146,279.0963a5.17192,4.89971 0 0 1 -3.4585,-6.03028a5.17192,4.89971 0 0 1 6.29824,-3.39077a5.17192,4.89971 0 0 1 3.6985,5.90106a5.17192,4.89971 0 0 1 -6.1573,3.61565" stroke-miterlimit="4" stroke-width="0" stroke="#050505" fill="#f3f4f4"/>
  <g id="g3190">
   <path d="m271.87071,268.36941a5.3145,5.70337 0 0 1 -3.55385,-7.01937a5.3145,5.70337 0 0 1 6.47188,-3.94694a5.3145,5.70337 0 0 1 3.80047,6.86896a5.3145,5.70337 0 0 1 -6.32705,4.2087" id="path3187" stroke-miterlimit="4" stroke-width="0" stroke="#050505" fill="#f3f4f4"/>
  </g>
 </g>
</svg>