<?xml version="1.0" encoding="UTF-8" standalone="no"?>
<!-- Generator: Adobe Illustrator 15.0.0, SVG Export Plug-In . SVG Version: 6.00 Build 0)  -->

<svg
   xmlns:osb="http://www.openswatchbook.org/uri/2009/osb"
   xmlns:dc="http://purl.org/dc/elements/1.1/"
   xmlns:cc="http://creativecommons.org/ns#"
   xmlns:rdf="http://www.w3.org/1999/02/22-rdf-syntax-ns#"
   xmlns:svg="http://www.w3.org/2000/svg"
   xmlns="http://www.w3.org/2000/svg"
   xmlns:xlink="http://www.w3.org/1999/xlink"
   xmlns:sodipodi="http://sodipodi.sourceforge.net/DTD/sodipodi-0.dtd"
   xmlns:inkscape="http://www.inkscape.org/namespaces/inkscape"
   version="1.1"
   id="レイヤー_1"
   x="0px"
   y="0px"
   width="401.98px"
   height="559.472px"
   viewBox="0 0 401.98 559.472"
   enable-background="new 0 0 401.98 559.472"
   xml:space="preserve"
   sodipodi:docname="022.svg"
   inkscape:version="0.92.4 (5da689c313, 2019-01-14)"><metadata
   id="metadata935"><rdf:RDF><cc:Work
       rdf:about=""><dc:format>image/svg+xml</dc:format><dc:type
         rdf:resource="http://purl.org/dc/dcmitype/StillImage" /><dc:title></dc:title></cc:Work></rdf:RDF></metadata><defs
   id="defs933"><linearGradient
     id="linearGradient1661"
     osb:paint="solid"><stop
       style="stop-color:#000000;stop-opacity:1;"
       offset="0"
       id="stop1659" /></linearGradient><clipPath
     clipPathUnits="userSpaceOnUse"
     id="clipPath3114"><use
       x="0"
       y="0"
       xlink:href="#g3110"
       id="use3116"
       width="100%"
       height="100%" /></clipPath><clipPath
     clipPathUnits="userSpaceOnUse"
     id="clipPath3123"><use
       x="0"
       y="0"
       xlink:href="#g3119"
       id="use3125"
       width="100%"
       height="100%" /></clipPath></defs><sodipodi:namedview
   pagecolor="#ffffff"
   bordercolor="#666666"
   borderopacity="1"
   objecttolerance="10"
   gridtolerance="10"
   guidetolerance="10"
   inkscape:pageopacity="0"
   inkscape:pageshadow="2"
   inkscape:window-width="1920"
   inkscape:window-height="986"
   id="namedview931"
   showgrid="false"
   inkscape:zoom="0.96434225"
   inkscape:cx="121.09437"
   inkscape:cy="171.17782"
   inkscape:window-x="-11"
   inkscape:window-y="-11"
   inkscape:window-maximized="1"
   inkscape:current-layer="レイヤー_1" />


<path
   d="m 97.388985,162.55782 c -42.2079,-11.8692 -10.8227,-65.564803 23.071305,-43.4791 z"
   id="path880"
   inkscape:connector-curvature="0"
   style="clip-rule:evenodd;fill:#6ad7e5;fill-rule:evenodd;stroke:#000000;stroke-width:2.0999999;stroke-linecap:round" />
<path
   d="m 284.91759,115.04952 c 33.4089,-23.466103 63.5992,29.4777 24.7716,42.7987 z"
   id="path882"
   inkscape:connector-curvature="0"
   style="clip-rule:evenodd;fill:#6ad7e5;fill-rule:evenodd;stroke:#000000;stroke-width:2.0999999;stroke-linecap:round" />
<path
   d="m 292.10379,429.60082 c 8.4861,5.2507 23.9974,21.1274 11.2672,28.826 -12.2318,11.1993 -19.0778,-12.2927 -29.8137,-15.5477 4.6235,-6.279 10.4839,-12.0043 18.5465,-13.2783 z"
   id="path884"
   inkscape:connector-curvature="0"
   style="clip-rule:evenodd;fill:#f6d2a2;fill-rule:evenodd;stroke:#000000;stroke-width:2.0999999;stroke-linecap:round" />
<path
   d="m 303.37099,458.42612 c -1.8872,-3.7527 -2.5207,-8.1326 -5.6714,-11.1573"
   id="path886"
   inkscape:connector-curvature="0"
   style="clip-rule:evenodd;fill:none;fill-rule:evenodd;stroke:#000000;stroke-width:2.0999999;stroke-linecap:round" />
<path
   d="m 140.49639,447.54322 c -9.9603,1.5414 -15.5666,10.5273 -23.87,15.0906 -7.8246,4.6655 -10.8178,-1.4938 -11.5227,-2.744 -1.2264,-0.5593 -1.1235,0.5208 -3.0163,-1.3853 -7.253405,-11.4478 7.5579,-19.8156 15.2705,-25.5024 10.7422,-2.1714 17.4741,7.1414 23.1385,14.5411 z"
   id="path888"
   inkscape:connector-curvature="0"
   style="clip-rule:evenodd;fill:#f6d2a2;fill-rule:evenodd;stroke:#000000;stroke-width:2.0999999;stroke-linecap:round" />
<path
   d="m 105.10439,459.88912 c 0.3794,-4.3631 3.8388,-7.2849 5.4866,-10.9739"
   id="path890"
   inkscape:connector-curvature="0"
   style="clip-rule:evenodd;fill:none;fill-rule:evenodd;stroke:#000000;stroke-width:2.0999999;stroke-linecap:round" />
<path
   d="m 99.150185,147.72762 c -5.5685,-2.9456 -9.6537,-6.9461 -6.2475,-13.3868 3.1535,-5.9626 9.011805,-5.3151 14.581005,-2.3695 z"
   id="path892"
   inkscape:connector-curvature="0"
   style="clip-rule:evenodd;fill-rule:evenodd;stroke-width:0.69999999" />
<path
   d="m 300.89229,142.12762 c 5.5685,-2.9456 9.6537,-6.9461 6.2475,-13.3868 -3.1535,-5.9626 -9.0118,-5.3151 -14.581,-2.3695 z"
   id="path894"
   inkscape:connector-curvature="0"
   style="clip-rule:evenodd;fill-rule:evenodd;stroke-width:0.69999999" />


<g
   id="g902"
   transform="matrix(0.7,0,0,0.7,64.491085,83.560717)">
	<path
   d="m 195.512,13.124 c 60.365,0 116.953,8.633 146.452,66.629 26.478,65.006 17.062,135.104 21.1,203.806 3.468,58.992 11.157,127.145 -16.21,181.812 -28.79,57.514 -100.73,71.982 -160,69.863 C 140.299,533.568 84.06,518.38 57.785,475.845 26.959,425.945 41.553,351.747 43.792,296.223 46.444,230.452 25.977,164.481 47.584,100.122 69.999,33.359 130.451,18.271 195.512,13.124"
   id="path900"
   inkscape:connector-curvature="0"
   style="clip-rule:evenodd;fill:#6ad7e5;fill-rule:evenodd;stroke:#000000;stroke-width:3;stroke-linecap:round" />
</g>
<path
   d="m 208.80939,149.47272 c 7.5866,44.1021 79.6754,32.4415 69.321,-12.0379 -9.2848,-39.886003 -71.8424,-28.8456 -69.321,12.0379"
   id="path904"
   inkscape:connector-curvature="0"
   style="clip-rule:evenodd;fill:#ffffff;fill-rule:evenodd;stroke:#000000;stroke-width:2.0356698;stroke-linecap:round" />
<path
   d="m 122.66319,156.60572 c 9.8329,38.395 71.3048,28.5649 68.9878,-9.9491 -2.7762,-46.1265 -78.3888,-37.226 -68.9878,9.9491"
   id="path906"
   inkscape:connector-curvature="0"
   style="clip-rule:evenodd;fill:#ffffff;fill-rule:evenodd;stroke:#000000;stroke-width:1.97498;stroke-linecap:round" />
<path
   d="m 217.50689,202.39412 c 0.0322,5.7337 1.3027,12.1709 0.2184,18.2707 -1.4637,2.7664 -4.3351,3.059 -6.8103,4.1769 -3.423,-0.5369 -6.3014,-2.7846 -7.6741,-5.9864 -0.8785,-6.9622 0.3276,-13.7032 0.5495,-20.6682 z"
   id="path908"
   inkscape:connector-curvature="0"
   style="clip-rule:evenodd;fill:#ffffff;fill-rule:evenodd;stroke:#000000;stroke-width:2.0999999;stroke-linecap:round" />
<g
   id="g914"
   transform="matrix(0.7,0,0,0.7,64.491085,83.560717)">
	<ellipse
   cx="107.324"
   cy="95.403999"
   rx="14.829"
   ry="16.062"
   id="ellipse910"
   style="clip-rule:evenodd;fill-rule:evenodd" />
	<ellipse
   cx="114.069"
   cy="99.028999"
   rx="3.4960001"
   ry="4.0819998"
   id="ellipse912"
   style="clip-rule:evenodd;fill:#ffffff;fill-rule:evenodd" />
</g>
<g
   id="g920"
   transform="matrix(0.7,0,0,0.7,64.491085,83.560717)">
	<ellipse
   cx="231.571"
   cy="91.403999"
   rx="14.582"
   ry="16.062"
   id="ellipse916"
   style="clip-rule:evenodd;fill-rule:evenodd" />
	<ellipse
   cx="238.20399"
   cy="95.028999"
   rx="3.438"
   ry="4.0819998"
   id="ellipse918"
   style="clip-rule:evenodd;fill:#ffffff;fill-rule:evenodd" />
</g>
<path
   d="m 187.84299,201.76972 c -4.529,10.976 2.5256,32.9245 14.8141,16.7356 -0.8785,-6.9622 0.3276,-13.7032 0.5495,-20.6682 z"
   id="path922"
   inkscape:connector-curvature="0"
   style="clip-rule:evenodd;fill:#ffffff;fill-rule:evenodd;stroke:#000000;stroke-width:2.0999999;stroke-linecap:round" />
<g
   id="g928"
   transform="matrix(0.7,0,0,0.7,64.491085,83.560717)">
	<path
   d="m 178.431,138.673 c -12.059,1.028 -21.916,15.366 -15.646,26.709 8.303,15.024 26.836,-1.329 38.379,0.203 13.285,0.272 24.17,14.047 34.84,2.49 11.867,-12.854 -5.109,-25.373 -18.377,-30.97 z"
   id="path924"
   inkscape:connector-curvature="0"
   style="clip-rule:evenodd;fill:#f6d2a2;fill-rule:evenodd;stroke:#231f20;stroke-width:3;stroke-linecap:round" />
	<path
   d="m 176.913,138.045 c -0.893,-20.891 38.938,-23.503 43.642,-6.016 4.692,17.446 -41.681,21.498 -43.642,6.016 -1.565,-12.363 0,0 0,0 z"
   id="path926"
   inkscape:connector-curvature="0"
   style="clip-rule:evenodd;fill-rule:evenodd" />
</g>
<g
   id="g3121"
   clip-path="url(#clipPath3123)"
   transform="matrix(0.66680147,0,0,0.7,64.537911,84.450276)"
   style="stroke:#050505;stroke-width:4.87156963;stroke-miterlimit:4;stroke-dasharray:none;stroke-opacity:1"><g
     inkscape:label="Clip"
     id="g3119"
     style="stroke:#050505;stroke-width:4.87156963;stroke-miterlimit:4;stroke-dasharray:none;stroke-opacity:1"><rect
       rx="13.198553"
       ry="19.797836"
       y="218.50937"
       x="52.78521"
       height="90.92337"
       width="300.64273"
       id="rect1648"
       style="opacity:1;fill:#f7fafb;fill-opacity:1;stroke:#050505;stroke-width:4.87156963;stroke-miterlimit:4;stroke-dasharray:none;stroke-opacity:1" /></g></g><path
   d="m 132.56578,292.99614 c -0.5348,-11.0257 -11.5493,-5.9241 -16.5382,-2.4773 -4.7355,3.2725 -6.1201,0.5523 -6.5359,7.0105 -0.2723,4.2448 -0.7616,8.4896 -0.5208,12.7512 7.161,0.6489 14.9499,-1.0563 20.8208,-5.3214 3.024,-2.1973 8.694,-9.2106 2.7741,-11.963"
   id="path876"
   inkscape:connector-curvature="0"
   style="clip-rule:evenodd;fill:#f6d2a2;fill-rule:evenodd;stroke:#000000;stroke-width:2.0999999;stroke-linecap:round" /><rect
   style="opacity:1;fill:#18fa56;fill-opacity:1;stroke:#050505;stroke-width:0;stroke-miterlimit:4;stroke-dasharray:none;stroke-opacity:1"
   id="rect3133"
   width="80.593658"
   height="60.469738"
   x="217.97729"
   y="238.49567"
   rx="7.2628536"
   ry="9.9532795" /><rect
   style="opacity:1;fill:#151516;fill-opacity:1;stroke:#050505;stroke-width:1.93347585;stroke-miterlimit:4;stroke-dasharray:none;stroke-opacity:1"
   id="rect3127"
   width="15.019105"
   height="61.172272"
   x="212.22964"
   y="238.67725"
   rx="6.287087"
   ry="0" /><rect
   style="opacity:1;fill:#060b0d;fill-opacity:1;stroke:#050505;stroke-width:2.38110232;stroke-miterlimit:4;stroke-dasharray:none;stroke-opacity:1"
   id="rect3129"
   width="150.25786"
   height="16.876789"
   x="60.861668"
   y="257.42609"
   rx="0" /><g
   id="g3112"
   clip-path="url(#clipPath3114)"
   transform="matrix(0.7,0,0,0.7,55.599014,82.290421)"
   style="stroke:#050505;stroke-width:4.78110218;stroke-miterlimit:4;stroke-dasharray:none;stroke-opacity:1"><g
     inkscape:label="Clip"
     id="g3110"
     style="stroke:#050505;stroke-width:4.78110218;stroke-miterlimit:4;stroke-dasharray:none;stroke-opacity:1"><rect
       ry="8.7990351"
       y="199.44479"
       x="46.194935"
       height="129.05252"
       width="29.330116"
       id="rect3107"
       style="opacity:1;fill:#f7fafb;fill-opacity:1;stroke:#050505;stroke-width:4.78110218;stroke-miterlimit:4;stroke-dasharray:none;stroke-opacity:1" /></g></g><rect
   style="opacity:1;fill:#060b0d;fill-opacity:1;stroke:#050505;stroke-width:2.38110232;stroke-miterlimit:4;stroke-dasharray:none;stroke-opacity:1"
   id="rect3131"
   width="21.595032"
   height="86.198654"
   x="39.26664"
   y="224.03546"
   rx="9.2689095" /><rect
   style="opacity:1;fill:#151516;fill-opacity:1;stroke:#050505;stroke-width:0;stroke-miterlimit:4;stroke-dasharray:none;stroke-opacity:1"
   id="rect3154"
   width="39.560635"
   height="19.780317"
   x="299.13287"
   y="257.78903"
   rx="0"
   ry="0.54441255" /><path
   d="m 342.49006,277.07662 c -0.5348,-11.0257 -11.5493,-5.9241 -16.5382,-2.4773 -4.7355,3.2725 -6.1201,0.5523 -6.5359,7.0105 -0.2723,4.2448 -0.7616,8.4896 -0.5208,12.7512 7.161,0.6489 14.9499,-1.0563 20.8208,-5.3214 3.0233,-2.1973 8.694,-9.2106 2.7741,-11.963"
   id="path896"
   inkscape:connector-curvature="0"
   style="clip-rule:evenodd;fill:#f6d2a2;fill-rule:evenodd;stroke:#000000;stroke-width:2.0999999;stroke-linecap:round" /><rect
   style="opacity:1;fill:#151516;fill-opacity:1;stroke:#050505;stroke-width:0;stroke-miterlimit:4;stroke-dasharray:none;stroke-opacity:1"
   id="rect3158"
   width="54.985661"
   height="1.6332449"
   x="336.87881"
   y="266.31815"
   ry="0.81662244"
   rx="0" /><rect
   style="opacity:1;fill:#151516;fill-opacity:1;stroke:#050505;stroke-width:0;stroke-miterlimit:4;stroke-dasharray:none;stroke-opacity:1"
   id="rect3160"
   width="0"
   height="0"
   x="390.16232"
   y="269.63712"
   ry="0" /><g
   id="g3193"
   transform="matrix(0.7,0,0,0.7,67.939031,85.375426)"><path
     sodipodi:open="true"
     d="m 259.40985,249.99274 a 10.499384,10.499385 0 0 1 -7.02106,-12.92199 10.499384,10.499385 0 0 1 12.78586,-7.26601 10.499384,10.499385 0 0 1 7.50832,12.64509 10.499384,10.499385 0 0 1 -12.49972,7.7479"
     sodipodi:end="1.7917818"
     sodipodi:start="1.8680054"
     sodipodi:ry="10.499385"
     sodipodi:rx="10.499384"
     sodipodi:cy="239.95367"
     sodipodi:cx="262.48462"
     sodipodi:type="arc"
     id="path3168"
     style="opacity:1;fill:#f3f4f4;fill-opacity:1;stroke:#050505;stroke-width:0;stroke-miterlimit:4;stroke-dasharray:none;stroke-opacity:1" /></g><path
   style="opacity:1;fill:#f3f4f4;fill-opacity:1;stroke:#050505;stroke-width:0;stroke-miterlimit:4;stroke-dasharray:none;stroke-opacity:1"
   id="path3185"
   sodipodi:type="arc"
   sodipodi:cx="262.20358"
   sodipodi:cy="271.03641"
   sodipodi:rx="5.1719189"
   sodipodi:ry="4.8997126"
   sodipodi:start="1.8680084"
   sodipodi:end="1.7917899"
   sodipodi:open="true"
   d="m 260.68896,275.7213 a 5.1719189,4.8997126 0 0 1 -3.4585,-6.03028 5.1719189,4.8997126 0 0 1 6.29824,-3.39077 5.1719189,4.8997126 0 0 1 3.6985,5.90106 5.1719189,4.8997126 0 0 1 -6.1573,3.61565" /><g
   id="g3190"
   transform="matrix(0.7,0,0,0.7,64.491085,83.560717)"><path
     d="m 294.37071,254.86941 a 5.3145032,5.7033691 0 0 1 -3.55385,-7.01937 5.3145032,5.7033691 0 0 1 6.47188,-3.94694 5.3145032,5.7033691 0 0 1 3.80047,6.86896 5.3145032,5.7033691 0 0 1 -6.32705,4.2087"
     sodipodi:open="true"
     sodipodi:end="1.7917899"
     sodipodi:start="1.8680084"
     sodipodi:ry="5.7033691"
     sodipodi:rx="5.3145032"
     sodipodi:cy="249.41609"
     sodipodi:cx="295.92709"
     sodipodi:type="arc"
     id="path3187"
     style="opacity:1;fill:#f3f4f4;fill-opacity:1;stroke:#050505;stroke-width:0;stroke-miterlimit:4;stroke-dasharray:none;stroke-opacity:1" /></g></svg>